Coordinates
version=1
nRows=38
nColumns=12
inDegrees=yes

Units are S.I. units (second, meters, Newtons, ...)
Angles are in degrees

endheader
time	SC_y	SC_z	SC_x	AC_y	AC_z	AC_x	GH_y	GH_z	GH_yy	EL_x	PS_y
       0.0              -37.99         -3.866           76.5          59.84         -7.553         -2.153          17.89          40.36         -138.1          5.813          30.96
   0.04648              -37.99          -3.86          76.49          59.84         -7.554         -2.152          17.89          40.35         -138.1          5.832          30.95
   0.09296              -37.99         -3.854          76.48          59.84         -7.556          -2.15          17.89          40.35         -138.0          5.852          30.95
    0.1394               -38.0         -3.848          76.48          59.84         -7.557         -2.149          17.89          40.34         -138.0          5.874          30.95
    0.1859               -38.0         -3.842          76.47          59.84         -7.559         -2.147           17.9          40.34         -138.0          5.897          30.94
    0.2324               -38.0         -3.835          76.46          59.84         -7.561         -2.145           17.9          40.33         -137.9          5.921          30.94
    0.2789              -38.01         -3.827          76.45          59.84         -7.563         -2.143           17.9          40.32         -137.9          5.947          30.93
    0.3254              -38.01         -3.819          76.44          59.84         -7.565         -2.141           17.9          40.32         -137.8          5.975          30.93
    0.3718              -38.02         -3.811          76.43          59.85         -7.567         -2.139          17.91          40.31         -137.7          6.005          30.92
    0.4183              -38.02         -3.801          76.42          59.85          -7.57         -2.137          17.91           40.3         -137.7          6.037          30.92
    0.4648              -38.03         -3.792           76.4          59.85         -7.573         -2.134          17.92           40.3         -137.6          6.072          30.91
    0.5113              -38.03         -3.781          76.39          59.85         -7.575         -2.131          17.92          40.29         -137.5          6.109           30.9
    0.5578              -38.04          -3.77          76.37          59.85         -7.578         -2.128          17.92          40.28         -137.4          6.149          30.89
    0.6042              -38.04         -3.757          76.36          59.86         -7.582         -2.125          17.93          40.27         -137.4          6.192          30.89
    0.6507              -38.05         -3.744          76.34          59.86         -7.585         -2.122          17.93          40.26         -137.3          6.239          30.88
    0.6972              -38.06          -3.73          76.32          59.86         -7.589         -2.118          17.94          40.25         -137.2           6.29          30.87
    0.7437              -38.07         -3.714           76.3          59.86         -7.593         -2.114          17.95          40.23         -137.0          6.345          30.86
    0.7902              -38.08         -3.697          76.28          59.87         -7.598          -2.11          17.95          40.22         -136.9          6.405          30.85
    0.8366              -38.09         -3.678          76.26          59.87         -7.603         -2.105          17.96          40.21         -136.8          6.471          30.83
    0.8831               -38.1         -3.658          76.23          59.88         -7.609         -2.099          17.97          40.19         -136.6          6.543          30.82
    0.9296              -38.11         -3.635           76.2          59.88         -7.615         -2.094          17.98          40.17         -136.5          6.622          30.81
    0.9761              -38.12          -3.61          76.17          59.88         -7.621         -2.087          17.99          40.15         -136.3          6.708          30.79
     1.023              -38.13         -3.583          76.14          59.89         -7.629          -2.08           18.0          40.13         -136.1          6.804          30.77
     1.069              -38.15         -3.553           76.1           59.9         -7.637         -2.072          18.01          40.11         -135.9          6.911          30.75
     1.116              -38.17         -3.519          76.05           59.9         -7.646         -2.064          18.02          40.08         -135.6          7.029          30.73
     1.162              -38.19         -3.481          76.01          59.91         -7.656         -2.054          18.04          40.05         -135.4          7.161          30.71
     1.208              -38.21         -3.439          75.95          59.92         -7.667         -2.043          18.05          40.02         -135.1          7.308          30.68
     1.255              -38.23         -3.392          75.89          59.93          -7.68         -2.031          18.07          39.98         -134.7          7.474          30.65
     1.301              -38.26         -3.339          75.82          59.94         -7.694         -2.017          18.09          39.93         -134.4          7.662          30.61
     1.348              -38.29         -3.278          75.74          59.95         -7.711         -2.001          18.11          39.89         -133.9          7.875          30.57
     1.394              -38.33         -3.208          75.66          59.96         -7.729         -1.983          18.14          39.83         -133.4          8.119          30.53
     1.441              -38.37         -3.129          75.55          59.98         -7.751         -1.963          18.17          39.77         -132.9          8.398          30.48
     1.487              -38.42         -3.037          75.44          59.99         -7.775         -1.939          18.21          39.69         -132.2           8.72          30.41
     1.534              -38.47          -2.93           75.3          60.01         -7.804         -1.912          18.25          39.61         -131.4          9.095          30.34
      1.58              -38.54         -2.806          75.14          60.04         -7.837         -1.879           18.3          39.51         -130.5          9.533          30.26
     1.627              -38.61         -2.658          74.95          60.07         -7.877         -1.841          18.36          39.39         -129.5          10.05          30.17
     1.673               -38.7         -2.483          74.73           60.1         -7.924         -1.796          18.42          39.25         -128.2          10.66          30.05
      1.72              -38.81         -2.274          74.46          60.14          -7.98         -1.742           18.5          39.08         -126.7           11.4          29.91
